<?xml version="1.0" encoding="utf-8"?>
<!-- Generator: Adobe Illustrator 25.4.1, SVG Export Plug-In . SVG Version: 6.00 Build 0)  -->
<svg version="1.1" xmlns="http://www.w3.org/2000/svg" xmlns:xlink="http://www.w3.org/1999/xlink" x="0px" y="0px"
	 viewBox="0 0 20 20" style="enable-background:new 0 0 20 20;" xml:space="preserve">
<style type="text/css">
	.st0{fill:#666666;}
	.st1{fill:#F2F2F2;}
</style>
<g id="Layer_2">
	<rect x="0" class="st0" width="20" height="20"/>
</g>
<g id="Layer_1">
	<g>
		<path d="M9.5,14.9C9.8,15.2,8.9,15.5,9,16L9.1,16c-0.1,0.2-0.3,0.7-0.5,0.8c0,0.1,0.1,0.1,0.2,0.1C8.7,17,8.6,17,8.6,17.2l0.2-0.1
			c0,0.2-0.3,0.7-0.4,0.9h0.1c0,0.3-0.1,0.9-0.2,1.1l0,0c-0.1,0.1-0.3,0.1-0.4,0.2c-0.1,0-0.2-0.2-0.2-0.3c-0.2-0.1-0.1-0.1-0.2-0.1
			c0,0-0.1,0.3-0.1,0.2l-0.6-0.1l0.5-0.2C7.3,19,6.8,19,6.7,19c-0.1,0.1,0,0.1-0.1,0.1v-0.2c-0.1,0.1-0.3-0.1-0.5-0.1v-0.1
			c-0.1,0-0.2,0-0.3,0.1c-0.1-0.1-0.3-0.5-0.4-0.6c0.3-0.1,0.2-0.4,0.2-0.6h0.1l0.1,0.3c0.3-0.9,0.2-1.9,0.7-2.6
			c0.2,0,0.5-0.1,0.7-0.1c0,0.2-0.2,0.5-0.2,0.7L7.3,16c0.1-0.3,0.6-1.1,0-1.1L7.1,15H6.7c-0.2-0.7,0.3-1.9,0.8-2.3
			c0,0-0.1,0-0.1-0.1c0-0.1,0.2-0.1,0.1-0.3l-0.1,0.1c0-0.2,0.1-0.1,0.1-0.2H7.5c0.2-0.4,0.5-1.5,0.6-1.9l0,0
			C7.7,10.4,6,9.9,6.8,9.5C6.6,9.5,6.6,9.3,6.6,9.1C7.2,9,8,9.1,8.6,9C8.8,8.9,8.9,8.3,9,8.1c0.2-0.2,0.3-0.6,0.3-0.8l0.1,0l0.1-0.5
			L10,6.2L9.8,6l0.3-0.5c0.4-0.7,0.7-1.8,1-2.6l0,0c0.2-0.4,0.3-1.1,0.6-1.4l0.1,0.1c0,0,0.2,0,0.3-0.1C12.7,2,13.6,2,13.6,3
			c0.5,0.4,1.1,1.3,1,1.9c0.1,0.3,0.5,1.8,0.5,2.1c0.1,0,0.2,0,0.2,0.1c-0.1,0.1-0.1,0.2-0.1,0.2l0.1,0.1v0.7h0c0,0.1-0.1,0.1,0,0.2
			l0.1,0.1c-0.1,0.3,0,0.6,0.1,0.9c-0.2,0.1,0,0.4-0.1,0.5l0.1-0.1l-0.1,0.1l0.1,0.1c-0.2,0.3,0.1,0.4,0.1,0.6c-0.1,0,0,0.2,0,0.2
			c-0.1,0.3,0,0.4,0.1,0.7c0,0,0,0.7,0,0.7c0.1,0.1,0.2,0.1,0.1,0.2l0.1,0.1c0.1,0.4,0,0.6-0.2,0.9c0,0,0-0.2-0.2-0.2
			c0,0.2-0.1,0.1-0.3,0.2c-0.1,0-0.1-0.2-0.2-0.2c-1.9,0.1-1.1-0.3-1.4-1.8c0.1,0,0.1,0.1,0.2,0.1c-0.1,0.1-0.1,0.3,0.1,0.3
			c0-0.3,0-0.7-0.2-1l0,0.2l-0.1-0.1l-0.1,0.3c0.2-1.5-0.8-0.9-1.8-1c-1-0.3-0.7,0.5-1,1.1l0.2,0.1l-0.1,0.1h-0.3
			c0,0.3-0.3,0.7-0.4,0.9c0,0.1-0.1,0.2,0.1,0.3c-0.4,0.6-0.6,1.5-0.8,2.1 M6.3,17.8c0-0.1,0-0.1-0.1-0.1
			C6.1,17.7,6.2,18.1,6.3,17.8z M6.5,16.6c-0.1,0.3-0.2,0.6-0.2,0.9C6.4,17.3,6.5,16.8,6.5,16.6z M6.8,16.5
			c-0.1,0.2-0.1,0.9-0.1,1.1l0.2-0.1c0.1-0.3,0.1-0.8,0.1-1.1L6.8,16.5z M7.3,18.9c0,0-0.6-0.1-0.5,0.1C7,18.9,7.3,19,7.3,18.9z
			 M7.1,16C7,16,7,16,7,16.1C7.1,16.5,7.4,16,7.1,16z M7.9,19.3L7.9,19.3L7.9,19.3L7.9,19.3z M8.2,18.8L8.2,18.8L8.2,18.8L8.2,18.8z
			 M13.2,7.7L13.2,7.7 M13.2,7.6c0,0-0.1-0.2-0.1-0.3c0.2-0.3-0.3-0.6-0.1-0.9c-0.1-0.2-0.3-0.8-0.4-1c-0.3,1-0.9,2.3-1.1,3.3
			C12,8.8,13,8.9,13.3,8.4h-0.1V8.1c0,0,0-0.2,0-0.2 M13.9,12c0,0.1,0,0.2,0,0.3h0C13.9,12.2,14,12.1,13.9,12z M13.9,12.6
			c0,0.1,0,0.3,0.1,0.3C14.1,12.7,14,12.2,13.9,12.6z"/>
	</g>
	<g>
		<path class="st1" d="M8.4,14.2c0.3,0.4-0.6,0.6-0.5,1.1l0.1,0.1C8,15.5,7.8,16,7.5,16.1c0,0.1,0.1,0.1,0.2,0.1
			c-0.1,0.1-0.2,0.2-0.2,0.3l0.2-0.1c0,0.2-0.3,0.7-0.4,0.9h0.1c0,0.3-0.1,0.9-0.2,1.1l0,0c-0.1,0.1-0.3,0.1-0.4,0.2
			c-0.1,0-0.2-0.2-0.2-0.3c-0.2-0.1-0.1-0.1-0.2-0.1c0,0-0.1,0.3-0.1,0.2l-0.6-0.1l0.5-0.2c-0.1,0-0.5-0.1-0.6-0.1
			c-0.1,0.1,0,0.1-0.1,0.1v-0.2c-0.1,0.1-0.3-0.1-0.5-0.1V18c-0.1,0-0.2,0-0.3,0.1c-0.1-0.1-0.3-0.5-0.4-0.6
			c0.3-0.1,0.2-0.4,0.2-0.6h0.1l0.1,0.3c0.3-0.9,0.2-1.9,0.7-2.6c0.2,0,0.5-0.1,0.7-0.1c0,0.2-0.2,0.5-0.2,0.7l0.2,0.2
			c0.1-0.3,0.6-1.1,0-1.1l-0.2,0.2H5.7c-0.2-0.7,0.3-1.9,0.8-2.3c0,0-0.1,0-0.1-0.1c0-0.1,0.2-0.1,0.1-0.3l-0.1,0.1
			c0-0.2,0.1-0.1,0.1-0.2H6.5c0.2-0.4,0.5-1.5,0.6-1.9l0,0C6.7,9.6,4.9,9.2,5.8,8.8C5.6,8.7,5.5,8.6,5.5,8.4c0.7-0.1,1.4,0,2.1-0.1
			C7.8,8.2,7.9,7.5,8,7.4c0.2-0.2,0.3-0.6,0.3-0.8l0.1,0l0.1-0.5L9,5.5L8.8,5.3L9,4.8C9.4,4.1,9.7,3,10,2.3l0,0
			c0.2-0.4,0.3-1.1,0.6-1.4l0.1,0.1c0,0,0.2,0,0.3-0.1c0.7,0.5,1.5,0.5,1.5,1.5c0.5,0.4,1.1,1.3,1,1.9c0.1,0.3,0.5,1.8,0.5,2.1
			c0.1,0,0.2,0,0.2,0.1c-0.1,0.1-0.1,0.2-0.1,0.2l0.1,0.1v0.7h0c0,0.1-0.1,0.1,0,0.2l0.1,0.1c-0.1,0.3,0,0.6,0.1,0.9
			c-0.2,0.1,0,0.4-0.1,0.5L14.3,9l-0.1,0.1l0.1,0.1c-0.2,0.3,0.1,0.4,0.1,0.6c-0.1,0,0,0.2,0,0.2c-0.1,0.3,0,0.4,0.1,0.7
			c0,0,0,0.7,0,0.7c0.1,0.1,0.2,0.1,0.1,0.2l0.1,0.1c0.1,0.4,0,0.6-0.2,0.9c0,0,0-0.2-0.2-0.2c0,0.2-0.1,0.1-0.3,0.2
			c-0.1,0-0.1-0.2-0.2-0.2c-1.9,0.1-1.1-0.3-1.4-1.8c0.1,0,0.1,0.1,0.2,0.1c-0.1,0.1-0.1,0.3,0.1,0.3c0-0.3,0-0.7-0.2-1l0,0.2
			l-0.1-0.1l-0.1,0.3c0.2-1.5-0.8-0.9-1.8-1c-1-0.3-0.7,0.5-1,1.1l0.2,0.1l-0.1,0.1H9.6c0,0.3-0.3,0.7-0.4,0.9
			c0,0.1-0.1,0.2,0.1,0.3c-0.4,0.6-0.6,1.5-0.8,2.1 M5.3,17.1c0-0.1,0-0.1-0.1-0.1C5.1,17,5.2,17.4,5.3,17.1z M5.4,15.9
			c-0.1,0.3-0.2,0.6-0.2,0.9C5.4,16.6,5.5,16.1,5.4,15.9z M5.8,15.8c-0.1,0.2-0.1,0.9-0.1,1.1l0.2-0.1c0.1-0.3,0.1-0.8,0.1-1.1
			L5.8,15.8z M6.3,18.2c0,0-0.6-0.1-0.5,0.1C5.9,18.2,6.2,18.3,6.3,18.2z M6.1,15.3C6,15.3,6,15.3,6,15.4C6,15.8,6.4,15.3,6.1,15.3z
			 M6.9,18.5L6.9,18.5L6.9,18.5L6.9,18.5z M7.2,18.1L7.2,18.1L7.2,18.1L7.2,18.1z M12.2,7L12.2,7 M12.2,6.9c0,0-0.1-0.2-0.1-0.3
			C12.3,6.4,11.8,6,12,5.7c-0.1-0.2-0.3-0.8-0.4-1c-0.3,1-0.9,2.3-1.1,3.3C11,8.1,12,8.2,12.3,7.7h-0.1V7.4c0,0,0-0.2,0-0.2
			 M12.8,11.3c0,0.1,0,0.2,0,0.3h0C12.9,11.5,13,11.4,12.8,11.3z M12.9,11.8c0,0.1,0,0.3,0.1,0.3C13.1,12,12.9,11.5,12.9,11.8z"/>
	</g>
</g>
</svg>
